<?xml version="1.0" standalone="no"?>
<!DOCTYPE svg PUBLIC "-//W3C//DTD SVG 20010904//EN"
 "http://www.w3.org/TR/2001/REC-SVG-20010904/DTD/svg10.dtd">
<svg version="1.0" xmlns="http://www.w3.org/2000/svg"
 width="640.000000pt" height="640.000000pt" viewBox="0 0 640.000000 640.000000"
 preserveAspectRatio="xMidYMid meet">
<metadata>
Created by potrace 1.14, written by Peter Selinger 2001-2017
</metadata>
<g transform="translate(0.000000,640.000000) scale(0.100000,-0.100000)"
fill="#000000" stroke="none">
<path d="M1 5053 c1 -851 5 -1331 10 -1303 143 697 414 1214 884 1686 187 189
312 292 503 418 371 243 756 401 1177 484 114 23 328 50 425 55 36 2 -625 4
-1467 5 l-1533 2 1 -1347z"/>
<path d="M3420 6393 c105 -6 306 -34 450 -63 352 -70 772 -237 1065 -423 763
-486 1266 -1208 1453 -2087 7 -30 10 402 11 1268 l1 1312 -1517 -2 c-835 -1
-1493 -3 -1463 -5z"/>
<path d="M2990 6293 c-30 -2 -113 -10 -185 -19 -574 -70 -1115 -299 -1585
-672 -87 -70 -318 -292 -401 -387 -570 -654 -838 -1526 -733 -2390 95 -783
490 -1499 1110 -2012 468 -387 1027 -624 1648 -699 248 -31 614 -21 886 22
996 159 1891 832 2323 1746 141 297 226 590 274 938 26 191 23 599 -5 787 -63
418 -182 770 -380 1118 -40 70 -166 264 -199 305 -353 446 -686 723 -1135 943
-502 246 -1041 353 -1618 320z m-71 -1138 c46 -30 132 -119 163 -170 14 -22
32 -62 41 -89 l17 -48 -25 4 c-22 5 -24 2 -19 -18 4 -14 2 -24 -5 -24 -22 0 3
-31 35 -45 38 -16 43 -38 20 -84 -8 -15 -22 -70 -31 -122 -9 -52 -21 -98 -26
-104 -7 -7 -8 -4 -4 8 8 20 2 21 -26 6 -11 -5 -17 -14 -14 -20 4 -5 0 -9 -9
-9 -8 0 -17 -6 -19 -12 -4 -9 -12 -5 -25 11 -13 17 -25 21 -40 17 -17 -6 -21
-2 -27 24 -4 20 -13 30 -25 30 -13 0 -20 11 -25 37 -5 28 -9 33 -16 22 -7 -10
-9 -2 -6 26 3 28 -1 43 -12 52 -14 10 -12 17 17 57 37 54 39 62 12 71 -25 8
-66 136 -52 161 11 20 -2 86 -25 125 -14 23 -14 30 -3 44 11 13 10 15 -2 10
-19 -7 -31 33 -22 69 6 24 6 24 61 9 30 -8 72 -25 92 -38z m731 6 c0 -22 -5
-43 -10 -46 -6 -4 -8 -10 -5 -15 3 -5 -4 -25 -16 -45 -16 -26 -23 -57 -25
-108 -4 -109 -12 -139 -45 -168 l-29 -26 30 -41 c34 -48 36 -57 14 -66 -9 -3
-14 -12 -11 -19 17 -47 18 -57 3 -57 -10 0 -16 -9 -16 -25 0 -14 -4 -25 -10
-25 -5 0 -7 -8 -3 -17 5 -15 3 -16 -8 -5 -18 17 -30 15 -23 -3 4 -8 1 -22 -6
-30 -6 -8 -9 -19 -5 -25 4 -7 -2 -6 -14 2 -12 7 -21 16 -21 20 0 16 -28 -5
-34 -25 -6 -21 -8 -20 -39 15 -25 28 -36 34 -47 26 -12 -8 -12 -9 3 -4 21 7
23 -10 2 -18 -16 -6 -16 -5 -36 109 -7 39 -18 87 -25 109 -18 50 -18 86 0 86
7 0 25 9 40 21 21 17 24 24 15 35 -6 8 -9 21 -5 29 4 12 0 14 -19 9 -30 -7
-31 1 -8 58 54 140 219 284 331 287 19 1 22 -4 22 -38z m-1496 -968 l-6 -98
79 78 c43 42 84 77 90 77 7 0 20 -15 29 -32 56 -110 199 -260 330 -349 l77
-51 -7 -77 c-23 -251 -143 -488 -326 -641 -130 -107 -237 -149 -381 -150 -178
0 -322 52 -424 155 -111 112 -217 358 -253 588 l-9 59 42 56 c67 91 163 190
255 264 124 99 234 154 400 197 119 31 111 37 104 -76z m1812 55 c-20 -95 -37
-957 -20 -1002 3 -8 34 -32 70 -53 35 -21 63 -41 61 -44 -5 -16 -183 -209
-191 -209 -6 0 -64 41 -131 92 -66 50 -121 92 -123 94 -2 1 12 23 31 48 20 25
40 60 46 78 6 20 12 174 13 398 2 327 1 371 -15 424 -10 32 -17 59 -15 61 9 9
264 145 272 145 5 0 5 -15 2 -32z m-926 -428 c49 -33 93 -60 97 -60 4 1 28 27
53 60 25 33 50 58 55 56 6 -2 51 -33 100 -68 50 -35 109 -77 133 -93 41 -29
42 -32 37 -70 -17 -116 -24 -201 -24 -299 l-1 -108 40 -40 40 -40 -86 -104
c-47 -57 -87 -104 -90 -104 -3 0 -29 23 -59 51 -73 69 -79 99 -73 356 6 224 6
227 -65 285 l-45 37 -18 -27 c-19 -28 -32 -159 -33 -336 l-1 -78 40 -40 c34
-35 38 -43 28 -57 -7 -9 -44 -54 -82 -101 -38 -47 -71 -87 -73 -89 -3 -4 -80
55 -147 112 l-39 34 20 44 c19 39 22 71 28 275 l7 231 -32 36 c-36 41 -39 30
44 135 27 34 51 62 53 62 2 0 44 -27 93 -60z m1399 -6 c56 -37 101 -73 101
-81 0 -7 -9 -26 -20 -41 -16 -22 -23 -65 -41 -254 -12 -125 -18 -239 -15 -253
8 -32 87 -115 110 -115 46 0 116 318 116 528 0 49 -4 60 -30 87 l-31 32 66 81
c36 45 68 82 70 82 4 0 185 -127 194 -136 2 -2 -3 -21 -12 -41 -9 -21 -30 -86
-47 -145 -81 -283 -251 -619 -427 -839 -67 -84 -144 -152 -166 -147 -13 3 -66
44 -140 108 l-29 26 73 29 c114 46 299 175 299 209 0 14 -65 41 -195 82 -55
18 -100 36 -99 40 0 5 9 27 19 49 18 36 20 68 23 292 l4 253 -32 29 -32 28 64
81 c35 44 66 81 70 81 3 1 52 -29 107 -65z m-2691 -1265 l50 -10 36 -92 c20
-51 36 -100 36 -109 0 -9 -11 -29 -25 -43 -22 -25 -27 -26 -59 -15 -24 8 -51
8 -88 1 -36 -6 -57 -6 -66 1 -21 18 -171 -34 -172 -59 0 -7 14 -20 31 -29 47
-24 107 -87 114 -120 4 -16 20 -57 36 -92 40 -86 41 -183 2 -279 -52 -129
-215 -259 -342 -270 l-57 -5 -17 38 c-14 30 -17 60 -15 124 l3 85 50 6 c60 7
112 33 181 88 53 42 101 117 92 143 -7 18 -115 81 -127 74 -4 -3 -21 -1 -37 4
-16 5 -55 14 -86 20 -49 10 -63 18 -93 52 -33 39 -35 45 -35 115 0 112 37 180
122 224 20 10 38 22 40 26 5 13 224 105 281 119 67 16 85 16 145 3z m997 -177
c6 -4 19 -23 29 -42 11 -19 22 -37 25 -40 19 -15 30 -62 21 -85 -13 -34 -7
-63 34 -180 20 -55 45 -142 57 -193 24 -108 17 -170 -28 -234 -82 -119 -328
-204 -447 -154 -40 17 -83 68 -107 128 -39 95 -13 269 62 407 47 87 129 204
170 243 16 15 29 30 29 33 0 13 56 75 68 75 7 0 18 11 24 25 11 25 42 33 63
17z m1757 -27 c10 -16 21 -38 24 -47 4 -10 10 -18 14 -18 14 0 21 -53 11 -86
-7 -25 0 -54 36 -160 93 -268 95 -370 7 -464 -45 -48 -139 -103 -210 -122 -68
-19 -177 -21 -216 -5 -46 20 -94 89 -114 167 -13 50 -13 73 -4 136 26 170 100
310 258 489 24 27 48 60 53 72 5 14 17 23 29 23 11 0 20 6 20 13 0 45 65 47
92 2z m-2286 2 c45 -23 60 -46 90 -132 36 -108 40 -242 7 -295 -51 -82 -128
-130 -280 -173 l-78 -23 -6 -94 c-10 -140 -22 -178 -66 -196 -47 -20 -60 -13
-84 43 -21 49 -21 90 1 205 9 47 8 66 -5 104 -12 37 -14 60 -6 114 9 67 43
150 61 150 5 0 12 12 16 28 3 15 17 62 31 104 46 137 115 192 229 184 34 -2
75 -11 90 -19z m1293 -26 c53 -54 77 -107 67 -147 -6 -23 -4 -23 25 10 34 40
165 112 274 152 102 38 217 36 228 -4 2 -9 16 -47 30 -84 25 -66 26 -67 7 -91
-19 -23 -24 -24 -117 -22 -77 2 -110 -2 -155 -18 -32 -11 -58 -23 -58 -28 0
-5 12 -15 28 -23 42 -23 81 -64 88 -94 4 -15 20 -54 37 -87 26 -53 29 -66 25
-127 -9 -120 -78 -222 -203 -297 -46 -28 -67 -35 -107 -34 -31 0 -54 6 -59 14
-11 19 -21 106 -17 149 3 32 6 35 45 42 99 16 242 131 231 186 -5 26 -90 69
-163 81 -122 21 -155 54 -155 152 0 29 -3 49 -7 45 -7 -7 -19 -82 -33 -221
-16 -154 -32 -211 -95 -324 -43 -78 -102 -102 -142 -58 -35 38 -82 118 -99
171 -16 48 -18 49 -27 26 -5 -14 -18 -43 -27 -65 -10 -22 -21 -64 -25 -93 -7
-52 -38 -92 -71 -92 -28 0 -83 145 -85 220 0 32 30 137 109 372 l109 327 29
-18 c43 -27 79 -71 97 -118 13 -33 14 -53 6 -102 -5 -33 -14 -72 -19 -87 -11
-28 -12 -201 -1 -249 l7 -30 26 40 c41 60 56 114 74 253 8 70 22 152 30 182 7
30 18 74 24 98 6 23 13 42 16 42 3 0 27 -22 53 -49z m1570 2 c23 -27 46 -53
51 -59 39 -52 80 -195 80 -280 0 -53 -5 -69 -32 -110 -27 -40 -49 -57 -120
-94 -48 -25 -87 -47 -87 -50 0 -3 19 -21 41 -40 27 -23 72 -45 136 -67 105
-35 109 -39 113 -119 2 -55 -16 -103 -40 -105 -85 -5 -231 62 -311 143 l-49
50 -6 -29 c-27 -124 -86 -168 -122 -91 -17 37 -32 113 -27 134 2 10 11 71 19
134 15 123 39 279 53 345 8 36 11 40 38 38 27 -2 32 3 74 84 47 90 106 163
132 163 9 0 34 -21 57 -47z"/>
<path d="M1809 4034 c-98 -92 -139 -229 -119 -395 18 -152 61 -260 140 -349
48 -55 54 -50 70 68 10 64 10 158 2 393 -6 170 -14 314 -17 319 -11 18 -25 11
-76 -36z"/>
<path d="M2154 3853 c8 -159 28 -291 61 -399 14 -45 25 -84 25 -87 0 -2 -28
-14 -62 -27 -35 -12 -79 -31 -98 -43 -43 -25 -120 -97 -120 -113 0 -17 73 -46
137 -53 132 -15 251 25 327 110 161 179 65 465 -238 711 l-39 32 7 -131z"/>
<path d="M2687 2029 c-10 -6 -23 -9 -29 -7 -15 5 -98 -86 -133 -146 -15 -26
-38 -78 -52 -117 -24 -69 -24 -72 -6 -91 15 -17 26 -19 75 -14 76 8 125 26
180 67 70 53 74 73 33 190 -43 127 -45 130 -68 118z"/>
<path d="M4421 2026 c-6 -7 -20 -12 -30 -9 -40 10 -183 -209 -198 -304 -10
-63 35 -77 151 -47 73 19 162 81 172 121 5 19 -4 59 -30 132 -41 118 -48 128
-65 107z"/>
<path d="M2055 2110 c-27 -10 -40 -27 -54 -72 -16 -48 -8 -60 27 -47 118 47
162 71 162 89 0 12 -66 40 -92 39 -12 0 -32 -4 -43 -9z"/>
<path d="M4972 2053 c-27 -42 -52 -95 -52 -109 0 -12 41 0 88 26 31 18 52 37
52 48 0 21 -36 82 -49 82 -5 0 -23 -21 -39 -47z"/>
<path d="M1 1348 l-1 -1348 1483 2 c815 1 1462 3 1437 5 -25 2 -94 10 -155 18
-667 92 -1270 376 -1770 832 -490 448 -830 1046 -966 1703 l-28 135 0 -1347z"/>
<path d="M6390 2600 c0 -12 -14 -78 -31 -148 -198 -813 -705 -1512 -1427
-1964 -416 -260 -915 -431 -1397 -477 -54 -5 493 -9 1388 -10 l1477 -1 0 1310
c0 721 -2 1310 -5 1310 -3 0 -5 -9 -5 -20z"/>
</g>
</svg>
